HIERARCHY
ROOT joint_Root
{
	OFFSET 0.0 0.0 0.0
	CHANNELS 6 Xposition Yposition Zposition Zrotation Xrotation Yrotation 
	JOINT Hips
	{
		OFFSET 4.5925 91.4895 -427.239
		CHANNELS 6 Xposition Yposition Zposition Zrotation Xrotation Yrotation 
		JOINT Spine
		{
			OFFSET 15.7357 0.0 0.0
			CHANNELS 6 Xposition Yposition Zposition Zrotation Xrotation Yrotation 
			JOINT Chest
			{
				OFFSET 8.98455 -0.406207 0.0
				CHANNELS 6 Xposition Yposition Zposition Zrotation Xrotation Yrotation 
				JOINT Neck
				{
					OFFSET 16.3773 0.0 0.0
					CHANNELS 6 Xposition Yposition Zposition Zrotation Xrotation Yrotation 
					JOINT Head
					{
						OFFSET 6.45672 0.0 0.0
						CHANNELS 6 Xposition Yposition Zposition Zrotation Xrotation Yrotation 
						End Site
						{
							OFFSET 0.0 0.0 0.0
						}
					}
				}
				JOINT Shoulder_L
				{
					OFFSET 12.9942 -0.242716 4.98039
					CHANNELS 6 Xposition Yposition Zposition Zrotation Xrotation Yrotation 
					JOINT UpperArm_L
					{
						OFFSET 5.34809 0.0 0.0
						CHANNELS 6 Xposition Yposition Zposition Zrotation Xrotation Yrotation 
						JOINT LowerArm_L
						{
							OFFSET 24.3286 1.87007e-05 0.0
							CHANNELS 6 Xposition Yposition Zposition Zrotation Xrotation Yrotation 
							JOINT Hand_L
							{
								OFFSET 22.2916 0.0 0.0
								CHANNELS 6 Xposition Yposition Zposition Zrotation Xrotation Yrotation 
								End Site
								{
									OFFSET 0.0 0.0 0.0
								}
							}
						}
					}
				}
				JOINT Shoulder_R
				{
					OFFSET 12.9945 -0.242716 -4.98039
					CHANNELS 6 Xposition Yposition Zposition Zrotation Xrotation Yrotation 
					JOINT UpperArm_R
					{
						OFFSET -5.34813 0.0 0.0
						CHANNELS 6 Xposition Yposition Zposition Zrotation Xrotation Yrotation 
						JOINT LowerArm_R
						{
							OFFSET -24.3289 0.000322201 0.0
							CHANNELS 6 Xposition Yposition Zposition Zrotation Xrotation Yrotation 
							JOINT Hand_R
							{
								OFFSET -22.2915 -0.000108084 0.0
								CHANNELS 6 Xposition Yposition Zposition Zrotation Xrotation Yrotation 
								End Site
								{
									OFFSET 0.0 0.0 0.0
								}
							}
						}
					}
				}
			}
		}
		JOINT UpperLeg_L
		{
			OFFSET -2.19248 -6.46944 0.0
			CHANNELS 6 Xposition Yposition Zposition Zrotation Xrotation Yrotation 
			JOINT LowerLeg_L
			{
				OFFSET 39.0811 0.0 -1.23785e-05
				CHANNELS 6 Xposition Yposition Zposition Zrotation Xrotation Yrotation 
				JOINT Foot_L
				{
					OFFSET 40.9854 0.0 -1.26872e-05
					CHANNELS 6 Xposition Yposition Zposition Zrotation Xrotation Yrotation 
					JOINT Toes_L
					{
						OFFSET 11.7543 0.0 0.0
						CHANNELS 6 Xposition Yposition Zposition Zrotation Xrotation Yrotation 
						End Site
						{
							OFFSET 0.0 0.0 0.0
						}
					}
				}
			}
		}
		JOINT UpperLeg_R
		{
			OFFSET -2.19251 6.46944 0.0
			CHANNELS 6 Xposition Yposition Zposition Zrotation Xrotation Yrotation 
			JOINT LowerLeg_R
			{
				OFFSET -39.0811 -0.00228153 -0.0401928
				CHANNELS 6 Xposition Yposition Zposition Zrotation Xrotation Yrotation 
				JOINT Foot_R
				{
					OFFSET -40.9854 0.0 0.0
					CHANNELS 6 Xposition Yposition Zposition Zrotation Xrotation Yrotation 
					JOINT Toes_R
					{
						OFFSET -11.7543 0.0 0.0
						CHANNELS 6 Xposition Yposition Zposition Zrotation Xrotation Yrotation 
						End Site
						{
							OFFSET 0.0 0.0 0.0
						}
					}
				}
			}
		}
	}
}
MOTION
Frames:	6
Frame Time:	0.0333333
0.000000 0.000000 0.000000 0.000000 0.000000 -0.000000 141.274000 85.227400 -144.328000 91.709200 -7.778100 -1.362660 15.735700 0.000005 -0.000001 117.335000 81.752500 -118.699000 8.984550 -0.406207 -0.000000 7.025430 7.557380 -3.193210 16.377300 -0.000001 -0.000001 1.534010 -3.324160 2.902980 6.456720 -0.000001 -0.000000 -5.664890 -6.348380 1.058800 12.994200 -0.242716 4.980390 -91.040300 2.395540 -66.517700 5.348090 -0.000007 -0.000001 -62.101400 29.027400 19.350100 24.328600 0.000019 0.000005 -3.002330 -0.134618 -87.412100 22.291600 -0.000001 0.000005 3.465690 5.436070 -4.143080 12.994500 -0.242716 -4.980390 89.017900 6.659370 -81.594200 -5.348130 -0.000001 -0.000004 -55.021200 38.909000 -24.836000 -24.328900 0.000322 -0.000009 -20.674200 -1.375940 -86.328500 -22.291500 -0.000108 -0.000004 22.936900 5.596240 -11.115500 -2.192480 -6.469440 -0.000000 175.178000 -13.980900 -32.311400 39.081100 -0.000007 -0.000012 -0.383648 0.286640 53.235900 40.985400 -0.000006 -0.000013 1.641610 -5.441280 -74.593000 11.754300 -0.000000 0.000003 -0.000366 -0.005956 -16.819400 -2.192510 6.469440 -0.000001 170.060000 12.369700 -171.037000 -39.081100 -0.002282 -0.040193 0.049137 -0.053433 40.638300 -40.985400 0.000008 0.000006 4.933330 6.419180 -68.569800 -11.754300 -0.000006 -0.000006 -0.219697 -0.676861 -45.737400
0.000000 0.000000 0.000000 0.000000 0.000000 -0.000000 141.245000 84.292500 -139.181000 91.762200 -4.364080 -0.751734 15.735700 0.000005 -0.000001 110.109000 82.268500 -111.543000 8.984550 -0.406207 -0.000000 6.845090 5.310390 -3.185430 16.377300 -0.000001 -0.000001 1.161390 -3.727220 2.655800 6.456720 -0.000001 -0.000000 -4.644200 -6.577100 2.835380 12.994200 -0.242716 4.980390 -92.357000 5.421420 -66.458500 5.348090 -0.000007 -0.000001 -61.489700 29.760400 9.091810 24.328600 0.000019 0.000005 -5.007820 -0.060176 -89.312800 22.291600 -0.000001 0.000005 5.704600 5.446600 -4.513170 12.994500 -0.242716 -4.980390 88.351400 9.795410 -80.400000 -5.348130 -0.000001 -0.000004 -59.329400 38.982700 -13.046700 -24.328900 0.000322 -0.000009 -16.241700 -6.871990 -67.653400 -22.291500 -0.000108 -0.000004 23.452000 5.593800 -10.950400 -2.192480 -6.469440 -0.000000 175.762000 -10.947700 -29.293400 39.081100 -0.000007 -0.000012 -0.405445 0.269500 56.388800 40.985400 -0.000006 -0.000013 1.325290 -5.268660 -79.481000 11.754300 -0.000000 0.000003 0.002184 0.054542 -14.364400 -2.192510 6.469440 -0.000001 170.384000 13.093200 -174.339000 -39.081100 -0.002282 -0.040193 0.147282 -0.116290 51.084400 -40.985400 0.000008 0.000006 6.643910 4.846820 -56.923800 -11.754300 -0.000006 -0.000006 -0.376297 -0.879052 -56.120900
0.000000 0.000000 0.000000 0.000000 0.000000 -0.000000 141.477000 83.899900 -134.427000 92.626900 -0.569335 0.186886 15.735700 0.000005 -0.000001 103.227000 82.366200 -104.865000 8.984550 -0.406207 -0.000000 7.158790 3.489680 -3.491760 16.377300 -0.000001 -0.000001 1.318970 -4.738670 2.533180 6.456720 -0.000001 -0.000000 -4.701970 -7.248520 3.347300 12.994200 -0.242716 4.980390 -92.804000 6.767640 -67.430100 5.348090 -0.000007 -0.000001 -61.391400 33.680400 -5.101460 24.328600 0.000019 0.000005 -5.249370 0.157284 -91.703800 22.291600 -0.000001 0.000005 8.724630 5.469970 -5.363980 12.994500 -0.242716 -4.980390 87.972500 11.015300 -79.503800 -5.348130 -0.000001 -0.000004 -64.231900 36.141700 0.931533 -24.328900 0.000322 -0.000009 -17.189200 -11.667000 -56.835400 -22.291500 -0.000108 -0.000004 25.184300 5.607450 -11.800900 -2.192480 -6.469440 -0.000000 175.303000 -7.051010 -24.659400 39.081100 -0.000007 -0.000012 -0.516860 0.340557 56.620500 40.985400 -0.000006 -0.000013 0.522748 -5.456490 -82.928900 11.754300 -0.000000 0.000003 -0.065465 -0.045092 -14.791200 -2.192510 6.469440 -0.000001 170.551000 12.186200 179.175000 -39.081100 -0.002282 -0.040193 0.216523 -0.105796 63.624000 -40.985400 0.000008 0.000006 3.977490 2.867580 -42.676700 -11.754300 -0.000006 -0.000006 -0.109055 -0.466488 -36.089200
0.000000 0.000000 0.000000 0.000000 0.000000 -0.000000 141.552000 83.804700 -130.260000 93.007300 2.563620 0.277392 15.735700 0.000005 -0.000001 96.421000 82.476400 -98.016700 8.984550 -0.406207 -0.000000 7.214710 1.684390 -3.294320 16.377300 -0.000001 -0.000001 0.835858 -5.350860 1.867930 6.456720 -0.000001 -0.000000 -4.623870 -7.236370 3.631320 12.994200 -0.242716 4.980390 -92.491400 6.507060 -68.998700 5.348090 -0.000007 -0.000001 -60.091900 37.442600 -20.747200 24.328600 0.000019 0.000005 -5.251570 0.529216 -95.761100 22.291600 -0.000001 0.000005 9.536390 5.486440 -5.996960 12.994500 -0.242716 -4.980390 87.755100 10.593500 -77.959800 -5.348130 -0.000001 -0.000004 -66.708700 36.185100 14.130200 -24.328900 0.000322 -0.000009 -28.205800 -17.385600 -60.870900 -22.291500 -0.000108 -0.000004 22.872700 5.615930 -12.350100 -2.192480 -6.469440 -0.000000 175.322000 -4.796570 -20.676500 39.081100 -0.000007 -0.000012 -0.469083 0.320950 55.620900 40.985400 -0.000006 -0.000013 0.636618 -4.658280 -85.546000 11.754300 -0.000000 0.000003 -0.192163 -0.209266 -14.611500 -2.192510 6.469440 -0.000001 172.247000 10.471900 170.971000 -39.081100 -0.002282 -0.040193 0.201315 -0.055322 74.410000 -40.985400 0.000008 0.000006 4.570190 -0.638974 -36.607100 -11.754300 -0.000006 -0.000006 -0.021022 -0.172883 -23.638400
0.000000 0.000000 0.000000 0.000000 0.000000 -0.000000 141.360000 84.707000 -125.985000 92.694600 5.038360 -0.016344 15.735700 0.000005 -0.000001 84.236900 82.690700 -85.585400 8.984550 -0.406207 -0.000000 6.764570 -1.451390 -2.608300 16.377300 -0.000001 -0.000001 0.917119 -5.198490 1.283570 6.456720 -0.000001 -0.000000 -4.722020 -4.976430 3.262540 12.994200 -0.242716 4.980390 -91.532500 4.281980 -70.288300 5.348090 -0.000007 -0.000001 -58.943800 38.045700 -33.124400 24.328600 0.000019 0.000005 -1.267720 0.258463 -101.587000 22.291600 -0.000001 0.000005 10.026000 5.483010 -5.863870 12.994500 -0.242716 -4.980390 88.035300 7.936340 -76.044800 -5.348130 -0.000001 -0.000004 -69.791000 39.450300 23.407400 -24.328900 0.000322 -0.000009 -26.848500 -14.428400 -63.798500 -22.291500 -0.000108 -0.000004 20.481200 5.620690 -12.680400 -2.192480 -6.469440 -0.000000 176.434000 -4.216280 -15.384800 39.081100 -0.000007 -0.000012 -0.247259 0.199738 51.069200 40.985400 -0.000006 -0.000013 1.727770 -3.013430 -86.529000 11.754300 -0.000000 0.000003 -0.066095 -0.029700 -14.108000 -2.192510 6.469440 -0.000001 174.477000 8.777670 163.811000 -39.081100 -0.002282 -0.040193 0.124472 -0.019903 80.708000 -40.985400 0.000008 0.000006 6.902980 -2.647830 -43.666300 -11.754300 -0.000006 -0.000006 -0.021756 -0.176828 -23.801100
0.000000 0.000000 0.000000 0.000000 0.000000 -0.000000 140.955000 86.268500 -121.532000 91.923800 5.608710 0.044256 15.735700 0.000005 -0.000001 72.105700 82.466700 -73.002200 8.984550 -0.406207 -0.000000 6.552420 -4.605590 -1.528020 16.377300 -0.000001 -0.000001 0.983043 -4.354650 0.788088 6.456720 -0.000001 -0.000000 -4.553050 -2.221780 2.032330 12.994200 -0.242716 4.980390 -90.662500 1.918550 -70.949400 5.348090 -0.000007 -0.000001 -57.112800 36.229600 -41.769000 24.328600 0.000019 0.000005 -2.631230 0.846540 -107.767000 22.291600 -0.000001 0.000005 10.303800 5.483910 -5.898820 12.994500 -0.242716 -4.980390 88.653300 5.202780 -75.465000 -5.348130 -0.000001 -0.000004 -71.623700 42.524700 29.859700 -24.328900 0.000322 -0.000009 -23.176900 -10.100700 -67.727700 -22.291500 -0.000108 -0.000004 17.907000 5.628060 -13.205300 -2.192480 -6.469440 -0.000000 178.252000 -5.179150 -8.161190 39.081100 -0.000007 -0.000012 0.029066 -0.031033 43.122400 40.985400 -0.000006 -0.000013 3.271910 -1.786910 -85.696300 11.754300 -0.000000 0.000003 0.002170 0.053877 -14.391400 -2.192510 6.469440 -0.000001 176.327000 5.705450 157.922000 -39.081100 -0.002282 -0.040193 0.076233 -0.011318 81.238800 -40.985400 0.000008 0.000006 6.084070 -4.691040 -48.474400 -11.754300 -0.000006 -0.000006 -0.020333 -0.169129 -23.483700
